# xmcd
#
# Track frame offsets:
# 150
# 23580
# 38451
# 59634
# 79221
# 107740
# 124014
# 135515
# 163500
# 186112
# 212414
# 231831
# 258346
#
# Disc length: 4013 seconds
#
#
# Revision: 0
# Processed by: cddbd v1.4PL0 Copyright (c) Steve Scherf et al.
# Submitted via: FreeRIP 2.12 
#
DISCID=a40fab0d
DTITLE=One Eyed Cat - Nasty Shake
DYEAR=1999
DGENRE=Blues
TTITLE0=Don't You Know I Love You
TTITLE1=Thirty Days
TTITLE2=Devil's Goin' Fishin'
TTITLE3=Hop, Skip and Jump
TTITLE4=Pretty Thing
TTITLE5=Te Ni Nee Ni Nu
TTITLE6=Oh Baby Babe
TTITLE7=Nasty Shake
TTITLE8=Why Get Up
TTITLE9=Buick '75
TTITLE10=Country Boy
TTITLE11=My Littlie Girl
TTITLE12=Wild Eyed and Reckless
EXTD=
EXTT0=
EXTT1=
EXTT2=
EXTT3=
EXTT4=
EXTT5=
EXTT6=
EXTT7=
EXTT8=
EXTT9=
EXTT10=
EXTT11=
EXTT12=
PLAYORDER=
